#!OML:ASF F:\VICON\USERDATA\Patient Classification 1\PLAYGROUND\JustinFriday\JustinFriday.ASF
:FULLY-SPECIFIED
:DEGREES
2599
root 15.0441 9.56847 -12.9194 170.194 -21.1379 -180.621
lowerback 43.0393 1.55037 -2.03296
upperback 10.2518 -2.50426 0.397071
thorax -8.77401 -2.63659 2.75528
lowerneck 14.1917 -13.7792 -10.6542
upperneck -25.6746 -18.3095 19.9872
head -7.08428 -10.6903 9.9932
rclavicle 1.45113e-014 3.1408e-014
rhumerus 104.759 -45.0452 -58.5796
rradius 51.3328
rwrist 5.37949
rhand -10.9069 -33.815
rfingers 7.12502
rthumb 15.1102 -63.2435
lclavicle 1.45113e-014 3.1408e-014
lhumerus 108.732 18.4256 64.6457
lradius 49.7569
lwrist -7.89344
lhand -14.8427 -7.69142
lfingers 7.12502
lthumb 11.3165 21.9833
rfemur -76.6308 -12.3263 21.577
rtibia 131.249
rfoot -34.2296 -6.24225
rtoes -5.61584
lfemur -47.9927 57.131 9.6722
ltibia 139.461
lfoot -40.7798 -22.011
ltoes -10.9856
2600
root 15.037 9.48173 -12.94 170.028 -20.9904 -180.617
lowerback 43.0576 1.42416 -2.04187
upperback 10.1021 -2.64819 0.208644
thorax -8.94911 -2.67642 2.62514
lowerneck 14.0701 -13.8467 -11.3837
upperneck -24.4509 -18.3457 20.7708
head -6.48279 -10.7025 10.1643
rclavicle 5.1684e-015 2.78299e-015
rhumerus 104.656 -44.832 -58.301
rradius 50.5228
rwrist 5.01296
rhand -11.1798 -33.258
rfingers 7.12502
rthumb 14.8473 -62.706
lclavicle 5.1684e-015 2.78299e-015
lhumerus 108.746 21.5028 62.251
lradius 48.1997
lwrist -4.58746
lhand -15.8224 -7.76444
lfingers 7.12502
lthumb 10.3715 21.9598
rfemur -76.9051 -12.4072 21.7088
rtibia 131.993
rfoot -34.2522 -7.1879
rtoes -7.24846
lfemur -46.4958 58.5337 12.0332
ltibia 140.228
lfoot -41.1396 -22.9416
ltoes -10.8574
2601
root 15.0342 9.40979 -12.9628 169.858 -20.8643 -180.522
lowerback 43.0421 1.52873 -1.73611
upperback 10.2834 -2.42288 0.388763
thorax -8.74994 -2.60845 2.55959
lowerneck 12.2355 -14.3991 -12.4142
upperneck -22.777 -19.1055 21.3494
head -5.3185 -11.0054 10.0342
rclavicle -2.127e-014 -8.34896e-015
rhumerus 105.348 -45.487 -57.8311
rradius 49.6428
rwrist 4.6311
rhand -10.0647 -33.3416
rfingers 7.12502
rthumb 15.9213 -62.7071
lclavicle -2.127e-014 -8.34896e-015
lhumerus 108.749 20.7751 62.9133
lradius 47.854
lwrist -5.46326
lhand -16.9252 -8.85918
lfingers 7.12502
lthumb 9.30754 20.9154
rfemur -77.1238 -12.3755 21.9116
rtibia 132.626
rfoot -34.3278 -7.52249
rtoes -7.23742
lfemur -44.9975 59.9522 14.5211
ltibia 140.85
lfoot -41.5767 -23.6737
ltoes -11.0247
2602
root 15.0292 9.3547 -12.981 169.912 -20.8707 -180.917
lowerback 42.9896 1.65615 -1.92508
upperback 10.4484 -2.39378 0.413729
thorax -8.54528 -2.623 2.66348
lowerneck 11.1731 -14.6542 -12.6937
upperneck -22.0428 -19.4479 21.3593
head -4.81948 -11.1237 9.85229
rclavicle 2.08724e-014 -1.66979e-014
rhumerus 105.472 -46.1024 -56.8064
rradius 48.2454
rwrist 5.86109
rhand -11.707 -33.4971
rfingers 7.12502
rthumb 14.3394 -62.9819
lclavicle 2.08724e-014 -1.66979e-014
lhumerus 107.646 26.0188 60.5544
lradius 48.5594
lwrist 0.0317733
lhand -17.172 -8.91323
lfingers 7.12502
lthumb 9.06935 20.8718
rfemur -77.4911 -12.67 21.5681
rtibia 133.252
rfoot -34.4232 -7.24653
rtoes -6.66584
lfemur -43.884 60.8723 15.6512
ltibia 141.256
lfoot -42.2598 -23.4409
ltoes -12.0693
2603
root 15.0199 9.30279 -12.9968 169.962 -20.9837 -181.204
lowerback 42.9431 1.61582 -2.04778
upperback 10.5086 -2.51558 0.36958
thorax -8.45791 -2.68699 2.72614
lowerneck 10.7925 -14.6869 -13.1294
upperneck -21.5885 -19.4887 21.7581
head -4.50841 -11.1366 9.93148
rclavicle 1.31198e-014 -2.36554e-014
rhumerus 106.444 -45.8482 -57.2445
rradius 47.4071
rwrist 5.11318
rhand -11.4754 -33.127
rfingers 7.12502
rthumb 14.5625 -62.5958
lclavicle 1.31198e-014 -2.36554e-014
lhumerus 105.929 29.0999 58.4345
lradius 49.2112
lwrist 5.15804
lhand -18.818 -10.3016
lfingers 7.12502
lthumb 7.48079 19.5461
rfemur -77.7901 -13.0587 21.1015
rtibia 133.816
rfoot -34.6969 -6.3169
rtoes -5.59669
lfemur -42.7514 61.5841 16.8165
ltibia 141.654
lfoot -42.7188 -23.4893
ltoes -12.9482
2604
root 15.0136 9.25637 -13.0149 169.923 -21.0589 -181.27
lowerback 42.9615 1.48712 -2.03859
upperback 10.3787 -2.64065 0.274919
thorax -8.60775 -2.7202 2.67781
lowerneck 11.1847 -14.6765 -13.6155
upperneck -21.3272 -19.4889 22.3647
head -4.36128 -11.1585 10.1893
rclavicle 2.18663e-015 1.09332e-014
rhumerus 106.705 -46.013 -57.0279
rradius 46.6602
rwrist 4.54651
rhand -11.2139 -33.237
rfingers 7.12502
rthumb 14.8144 -62.6875
lclavicle 2.18663e-015 1.09332e-014
lhumerus 106.197 29.5284 57.8371
lradius 48.5278
lwrist 4.21849
lhand -17.3319 -8.53033
lfingers 7.12502
lthumb 8.91507 21.2613
rfemur -77.9801 -13.2633 20.8574
rtibia 134.293
rfoot -34.9115 -5.57442
rtoes -4.76806
lfemur -41.2465 62.4245 18.6949
ltibia 142.023
lfoot -42.857 -24.3022
ltoes -12.9772
2605
root 15.0127 9.21345 -13.0348 169.85 -21.1262 -181.34
lowerback 43.0108 1.37501 -2.06287
upperback 10.2303 -2.76179 0.1533
thorax -8.78829 -2.74904 2.61811
lowerneck 11.7907 -14.6689 -13.5226
upperneck -21.4038 -19.4942 22.3121
head -4.50359 -11.1671 10.2382
rclavicle -2.22639e-014 1.82882e-014
rhumerus 106.63 -45.9309 -56.7275
rradius 46.1112
rwrist 4.67388
rhand -11.2351 -33.5821
rfingers 7.12502
rthumb 14.794 -63.034
lclavicle -2.22639e-014 1.82882e-014
lhumerus 105.577 30.232 56.6802
lradius 48.3505
lwrist 4.27986
lhand -16.4641 -7.3745
lfingers 7.12502
lthumb 9.75241 22.3797
rfemur -78.1958 -13.4584 20.906
rtibia 134.772
rfoot -34.9298 -5.95729
rtoes -5.13253
lfemur -38.7238 63.8822 21.8331
ltibia 142.406
lfoot -43.1232 -25.5632
ltoes -12.7043
